<svg width="1024" height="1024" viewBox="0 0 1024 1024" fill="none" xmlns="http://www.w3.org/2000/svg">
<rect width="1024" height="1024" fill="#EDEDED"/>
<path d="M456.344 570.524L462.248 566.26C469.683 561.887 474.931 559.7 477.992 559.7C484.771 559.7 492.096 565.823 499.968 578.068C504.779 585.721 507.184 591.844 507.184 596.436C507.184 601.028 505.653 604.855 502.592 607.916C499.749 610.977 496.36 613.711 492.424 616.116C488.488 618.521 484.661 620.817 480.944 623.004C477.445 625.191 470.12 628.033 458.968 631.532C447.816 635.031 436.992 636.78 426.496 636.78C416.219 636.78 405.723 635.468 395.008 632.844C384.512 630.001 373.579 625.409 362.208 619.068C351.056 612.508 340.997 604.636 332.032 595.452C323.067 586.049 315.632 574.132 309.728 559.7C304.043 545.049 301.2 529.196 301.2 512.14C301.2 495.084 304.043 479.668 309.728 465.892C315.413 451.897 322.629 440.417 331.376 431.452C340.341 422.268 350.509 414.615 361.88 408.492C383.309 396.684 404.848 390.78 426.496 390.78C436.773 390.78 447.16 392.42 457.656 395.7C468.371 398.761 476.461 401.932 481.928 405.212L489.8 409.804C493.736 412.209 496.797 414.177 498.984 415.708C504.669 420.3 507.512 425.548 507.512 431.452C507.512 437.137 505.216 443.151 500.624 449.492C492.096 461.3 484.443 467.204 477.664 467.204C473.728 467.204 468.152 464.799 460.936 459.988C451.752 452.553 439.507 448.836 424.2 448.836C409.987 448.836 395.992 453.756 382.216 463.596C375.656 468.407 370.189 475.185 365.816 483.932C361.443 492.679 359.256 502.628 359.256 513.78C359.256 524.713 361.443 534.553 365.816 543.3C370.189 552.047 375.765 558.935 382.544 563.964C395.883 573.585 409.768 578.396 424.2 578.396C430.979 578.396 437.32 577.521 443.224 575.772C449.347 574.023 453.72 572.273 456.344 570.524ZM699.953 504.596C712.855 519.903 719.305 537.068 719.305 556.092C718.868 577.959 711.324 596.327 696.673 611.196C682.241 625.847 664.639 633.172 643.865 633.172H557.601C542.295 633.172 533.329 629.017 530.705 620.708C529.393 616.991 528.737 611.305 528.737 603.652V421.612C528.737 416.364 528.847 412.537 529.065 410.132C529.503 407.727 530.596 404.884 532.345 401.604C535.407 395.7 543.935 392.748 557.929 392.748H640.585C660.703 392.748 677.54 399.745 691.097 413.74C705.311 427.953 712.417 445.009 712.417 464.908C712.417 479.34 708.263 492.569 699.953 504.596ZM661.249 552.812C661.249 547.564 660.593 543.409 659.281 540.348C658.188 537.287 656.22 535.1 653.377 533.788C649.004 532.039 642.881 531.164 635.009 531.164C627.137 531.164 621.233 529.633 617.297 526.572C613.361 523.511 611.393 517.279 611.393 507.876C611.393 498.255 613.361 491.913 617.297 488.852C621.452 485.791 628.231 484.26 637.633 484.26C646.38 484.26 651.628 481.964 653.377 477.372C654.033 474.967 654.361 471.031 654.361 465.564C654.361 460.097 652.503 456.271 648.785 454.084C645.287 451.897 639.929 450.804 632.713 450.804H586.793V575.116H640.585C654.361 575.116 661.249 567.681 661.249 552.812Z" fill="#A28ADF"/>
</svg>
